<svg width="16" height="15" viewBox="0 0 16 15" fill="none" xmlns="http://www.w3.org/2000/svg">
<g clip-path="url(#clip0_0_29)">
<path d="M12.009 9.69576C12.9167 8.45703 13.3233 6.92122 13.1474 5.39559C12.9714 3.86996 12.2259 2.46702 11.06 1.46745C9.89408 0.467877 8.39373 -0.0546085 6.85913 0.00452258C5.32452 0.0636537 3.86883 0.70004 2.78328 1.78636C1.69773 2.87269 1.06239 4.32884 1.00436 5.86348C0.946323 7.39813 1.46988 8.8981 2.47029 10.0633C3.47069 11.2285 4.87416 11.973 6.39992 12.1479C7.92568 12.3227 9.4612 11.9151 10.6993 11.0064H10.6983C10.7258 11.0439 10.7565 11.0798 10.7902 11.1142L14.3996 14.7236C14.5754 14.8995 14.8139 14.9984 15.0625 14.9985C15.3112 14.9985 15.5498 14.8998 15.7257 14.724C15.9016 14.5483 16.0005 14.3098 16.0006 14.0611C16.0007 13.8124 15.9019 13.5739 15.7262 13.398L12.1168 9.78858C12.0833 9.75463 12.0472 9.72423 12.009 9.69576ZM12.2508 6.09201C12.2508 6.76914 12.1175 7.43964 11.8583 8.06522C11.5992 8.69081 11.2194 9.25923 10.7406 9.73803C10.2618 10.2168 9.69339 10.5966 9.0678 10.8558C8.44222 11.1149 7.77172 11.2483 7.09459 11.2483C6.41746 11.2483 5.74697 11.1149 5.12138 10.8558C4.4958 10.5966 3.92737 10.2168 3.44857 9.73803C2.96977 9.25923 2.58996 8.69081 2.33084 8.06522C2.07171 7.43964 1.93834 6.76914 1.93834 6.09201C1.93834 4.72449 2.48159 3.41298 3.44857 2.44599C4.41556 1.47901 5.72707 0.935763 7.09459 0.935763C8.46211 0.935763 9.77363 1.47901 10.7406 2.44599C11.7076 3.41298 12.2508 4.72449 12.2508 6.09201Z" fill="#EDF0F3"/>
</g>
<defs>
<clipPath id="clip0_0_29">
<rect width="15" height="15" fill="white" transform="translate(0.75)"/>
</clipPath>
</defs>
</svg>
